<svg xmlns="http://www.w3.org/2000/svg" width="400" height="260" viewBox="0 0 400 260" role="img" aria-labelledby="title description">
<title id="title">GitHub 贡献节奏 · 近 31 天</title>
<desc id="description">MashedPotato817: 2026-09-08 to 2026-10-08, 412 contributions. 19 active days.</desc>
<rect width="400" height="260" rx="12" fill="#0d1117"/>
<style>@keyframes light-up { from { opacity: .18; } to { opacity: 1; } } .day-bar { animation: light-up .6s ease-out both; } @media (prefers-reduced-motion: reduce) { .day-bar { animation: none; } }</style>
<g font-family="Arial, Microsoft YaHei, sans-serif" font-size="14" fill="#e6edf3">
<text x="24" y="29" font-size="18" font-weight="600">GitHub 贡献节奏 · 近 31 天</text>
<text id="total-contributions" x="24" y="73" font-size="32" font-weight="600">412</text>
<text x="24" y="96">总贡献</text>
<text id="active-days" x="200" y="73" font-size="32" font-weight="600">19</text>
<text x="200" y="96">活跃天数</text>
<text x="29.68" y="225" text-anchor="middle">09/08</text>
<text x="143.23" y="225" text-anchor="middle">09/18</text>
<text x="256.77" y="225" text-anchor="middle">09/28</text>
<text x="370.32" y="225" text-anchor="middle">10/08</text>
<text x="24" y="250">更新 2026-10-08 UTC</text>
</g>
<rect class="day-bar" x="25.70" y="196.58" width="7.95" height="5.42" rx="2" fill="#2dd4bf" style="animation-delay: 0.000s"><title>2026-09-08: 8 contributions</title></rect>
<rect class="day-bar" x="37.06" y="195.91" width="7.95" height="6.09" rx="2" fill="#2dd4bf" style="animation-delay: 0.035s"><title>2026-09-09: 9 contributions</title></rect>
<rect class="day-bar" x="48.41" y="186.43" width="7.95" height="15.57" rx="2" fill="#2dd4bf" style="animation-delay: 0.070s"><title>2026-09-10: 23 contributions</title></rect>
<rect class="day-bar" x="59.77" y="176.94" width="7.95" height="25.06" rx="2" fill="#2dd4bf" style="animation-delay: 0.105s"><title>2026-09-11: 37 contributions</title></rect>
<rect class="day-bar" x="71.12" y="170.17" width="7.95" height="31.83" rx="2" fill="#2dd4bf" style="animation-delay: 0.140s"><title>2026-09-12: 47 contributions</title></rect>
<rect class="day-bar" x="82.48" y="116.00" width="7.95" height="86.00" rx="2" fill="#2dd4bf" style="animation-delay: 0.175s"><title>2026-09-13: 127 contributions</title></rect>
<rect class="day-bar" x="93.83" y="200.00" width="7.95" height="2.00" rx="2" fill="#30363d" style="animation-delay: 0.210s"><title>2026-09-14: 0 contributions</title></rect>
<rect class="day-bar" x="105.19" y="197.94" width="7.95" height="4.06" rx="2" fill="#2dd4bf" style="animation-delay: 0.245s"><title>2026-09-15: 6 contributions</title></rect>
<rect class="day-bar" x="116.54" y="200.00" width="7.95" height="2.00" rx="2" fill="#30363d" style="animation-delay: 0.280s"><title>2026-09-16: 0 contributions</title></rect>
<rect class="day-bar" x="127.90" y="195.91" width="7.95" height="6.09" rx="2" fill="#2dd4bf" style="animation-delay: 0.315s"><title>2026-09-17: 9 contributions</title></rect>
<rect class="day-bar" x="139.25" y="200.00" width="7.95" height="2.00" rx="2" fill="#30363d" style="animation-delay: 0.350s"><title>2026-09-18: 0 contributions</title></rect>
<rect class="day-bar" x="150.61" y="200.00" width="7.95" height="2.00" rx="2" fill="#30363d" style="animation-delay: 0.385s"><title>2026-09-19: 0 contributions</title></rect>
<rect class="day-bar" x="161.96" y="197.94" width="7.95" height="4.06" rx="2" fill="#2dd4bf" style="animation-delay: 0.420s"><title>2026-09-20: 6 contributions</title></rect>
<rect class="day-bar" x="173.32" y="200.00" width="7.95" height="2.00" rx="2" fill="#30363d" style="animation-delay: 0.455s"><title>2026-09-21: 0 contributions</title></rect>
<rect class="day-bar" x="184.67" y="200.00" width="7.95" height="2.00" rx="2" fill="#30363d" style="animation-delay: 0.490s"><title>2026-09-22: 0 contributions</title></rect>
<rect class="day-bar" x="196.03" y="200.00" width="7.95" height="2.00" rx="2" fill="#30363d" style="animation-delay: 0.525s"><title>2026-09-23: 0 contributions</title></rect>
<rect class="day-bar" x="207.38" y="200.00" width="7.95" height="2.00" rx="2" fill="#30363d" style="animation-delay: 0.560s"><title>2026-09-24: 0 contributions</title></rect>
<rect class="day-bar" x="218.74" y="200.00" width="7.95" height="2.00" rx="2" fill="#30363d" style="animation-delay: 0.595s"><title>2026-09-25: 0 contributions</title></rect>
<rect class="day-bar" x="230.09" y="200.00" width="7.95" height="2.00" rx="2" fill="#30363d" style="animation-delay: 0.630s"><title>2026-09-26: 0 contributions</title></rect>
<rect class="day-bar" x="241.45" y="200.00" width="7.95" height="2.00" rx="2" fill="#2dd4bf" style="animation-delay: 0.665s"><title>2026-09-27: 1 contributions</title></rect>
<rect class="day-bar" x="252.80" y="192.52" width="7.95" height="9.48" rx="2" fill="#2dd4bf" style="animation-delay: 0.700s"><title>2026-09-28: 14 contributions</title></rect>
<rect class="day-bar" x="264.15" y="195.23" width="7.95" height="6.77" rx="2" fill="#2dd4bf" style="animation-delay: 0.735s"><title>2026-09-29: 10 contributions</title></rect>
<rect class="day-bar" x="275.51" y="189.81" width="7.95" height="12.19" rx="2" fill="#2dd4bf" style="animation-delay: 0.770s"><title>2026-09-30: 18 contributions</title></rect>
<rect class="day-bar" x="286.86" y="173.56" width="7.95" height="28.44" rx="2" fill="#2dd4bf" style="animation-delay: 0.805s"><title>2026-10-01: 42 contributions</title></rect>
<rect class="day-bar" x="298.22" y="188.46" width="7.95" height="13.54" rx="2" fill="#2dd4bf" style="animation-delay: 0.840s"><title>2026-10-02: 20 contributions</title></rect>
<rect class="day-bar" x="309.57" y="200.00" width="7.95" height="2.00" rx="2" fill="#2dd4bf" style="animation-delay: 0.875s"><title>2026-10-03: 2 contributions</title></rect>
<rect class="day-bar" x="320.93" y="200.00" width="7.95" height="2.00" rx="2" fill="#30363d" style="animation-delay: 0.910s"><title>2026-10-04: 0 contributions</title></rect>
<rect class="day-bar" x="332.28" y="200.00" width="7.95" height="2.00" rx="2" fill="#2dd4bf" style="animation-delay: 0.945s"><title>2026-10-05: 2 contributions</title></rect>
<rect class="day-bar" x="343.64" y="192.52" width="7.95" height="9.48" rx="2" fill="#2dd4bf" style="animation-delay: 0.980s"><title>2026-10-06: 14 contributions</title></rect>
<rect class="day-bar" x="354.99" y="200.00" width="7.95" height="2.00" rx="2" fill="#30363d" style="animation-delay: 1.015s"><title>2026-10-07: 0 contributions</title></rect>
<rect class="day-bar" x="366.35" y="190.49" width="7.95" height="11.51" rx="2" fill="#2dd4bf" style="animation-delay: 1.050s"><title>2026-10-08: 17 contributions</title></rect>
</svg>
